<?xml version="1.0" encoding="UTF-8"?>
<svg version="1.1" xmlns="http://www.w3.org/2000/svg" width="1024" height="1024">
<path d="M0 0 C337.92 0 675.84 0 1024 0 C1024 337.92 1024 675.84 1024 1024 C686.08 1024 348.16 1024 0 1024 C0 686.08 0 348.16 0 0 Z " fill="#F2F2F2" transform="translate(0,0)"/>
<path d="M0 0 C1.97431123 -0.00435533 3.94862078 -0.0095412 5.92292786 -0.01548767 C11.2516612 -0.02880178 16.58032329 -0.02946475 21.90907001 -0.02692437 C26.3742605 -0.02584931 30.83943688 -0.03075175 35.30462432 -0.03552979 C45.84876433 -0.04659915 56.39286872 -0.04707715 66.93701172 -0.04101562 C77.77571384 -0.03498006 88.61428601 -0.04728223 99.45296597 -0.06858569 C108.79355224 -0.08626232 118.13409738 -0.09219345 127.47469974 -0.08894795 C133.03795075 -0.08714431 138.60110908 -0.08967861 144.16434479 -0.10366249 C149.40118775 -0.11633499 154.63782978 -0.11420858 159.87467003 -0.1012516 C161.78325916 -0.09890649 163.69186286 -0.10154518 165.60043526 -0.10987473 C195.74160822 -0.2318087 224.62157509 6.89461493 246.58105469 28.67700195 C263.46814752 46.61245457 270.35816964 70.05351411 270.27270508 94.35058594 C270.2728511 95.44400803 270.27299713 96.53743011 270.27314758 97.66398621 C270.27245339 101.26209528 270.26468412 104.86015197 270.25683594 108.45825195 C270.25497001 110.95931469 270.25354693 113.4603778 270.25254822 115.96144104 C270.24912598 121.86151709 270.24125214 127.76157394 270.23119873 133.66164213 C270.21889696 141.04240979 270.21354779 148.42317979 270.20800781 155.80395508 C270.19729484 168.96086558 270.18042823 182.11776071 270.15917969 195.2746582 C268.53979492 195.85582397 268.53979492 195.85582397 266.88769531 196.44873047 C265.44680885 196.97498257 264.00606096 197.50161418 262.56542969 198.02856445 C261.85676758 198.28174438 261.14810547 198.53492432 260.41796875 198.79577637 C253.56728082 201.31753822 247.97551801 204.83817191 242.15917969 209.2746582 C241.44503906 209.80575195 240.73089844 210.3368457 239.99511719 210.8840332 C220.27747206 226.75241693 212.904005 251.55053166 208.15917969 275.2746582 C124.33917969 275.2746582 40.51917969 275.2746582 -45.84082031 275.2746582 C-47.82082031 265.3746582 -47.82082031 265.3746582 -49.84082031 255.2746582 C-58.11904404 232.0596395 -70.75472397 212.23439549 -92.84082031 200.2746582 C-97.7320957 198.10274152 -102.65665318 196.55672006 -107.84082031 195.2746582 C-107.91128306 180.83492679 -107.96378903 166.39522252 -107.99625683 151.95535374 C-108.01164562 145.24881839 -108.03296388 138.54240646 -108.06713867 131.8359375 C-108.09996907 125.3519929 -108.11772289 118.86815948 -108.12545204 112.38413811 C-108.13095332 109.92247711 -108.14169468 107.46082152 -108.15801048 104.99920845 C-108.3488123 74.99227633 -103.50380202 49.82021897 -82.27832031 27.2746582 C-70.90684627 16.17885626 -56.43110935 9.09263955 -41.34082031 4.5246582 C-40.36375122 4.22640137 -40.36375122 4.22640137 -39.36694336 3.92211914 C-26.35336171 0.20804835 -13.41066639 -0.01967929 0 0 Z " fill="#1C92FE" transform="translate(430.8408203125,213.725341796875)"/>
<path d="M0 0 C0.72520122 -0.00367669 1.45040243 -0.00735338 2.19757944 -0.01114148 C4.62851739 -0.02215739 7.05941256 -0.02601867 9.4903717 -0.02983093 C11.23339472 -0.0360974 12.97641641 -0.04274436 14.71943665 -0.04974365 C20.44653902 -0.07077295 26.17364162 -0.08114822 31.90077209 -0.09111023 C33.87545345 -0.09515887 35.85013467 -0.09927582 37.82481575 -0.10346031 C47.10730321 -0.12251321 56.38978273 -0.13674139 65.67228597 -0.14507228 C76.36821533 -0.1548312 87.06393699 -0.18111514 97.75979322 -0.22157317 C106.0377173 -0.25180413 114.3155821 -0.26654795 122.59356028 -0.26985329 C127.53201012 -0.27219673 132.47023812 -0.28106425 137.40862846 -0.30631447 C142.06180755 -0.32972113 146.71462076 -0.33377816 151.36784363 -0.32355309 C153.066872 -0.32306059 154.76591915 -0.32929577 156.46489143 -0.34310913 C172.08225931 -0.46288053 185.0204146 1.93144281 196.80702209 13.02607727 C226.24673137 44.36512263 208.81092834 122.20211847 208.81092834 143.14717102 C125.65092834 143.14717102 42.49092834 143.14717102 -43.18907166 143.14717102 C-42.11364635 24.8503871 -42.11364635 24.8503871 -29.38047791 11.20967102 C-21.36293724 3.47549458 -10.94917252 0.03600877 0 0 Z " fill="#2CCA73" transform="translate(429.18907165527344,535.8528289794922)"/>
<path d="M0 0 C22.28716557 11.76931772 37.70265186 30.66532376 45.49796009 54.53017807 C48.11441647 63.68133209 48.12879173 72.53847314 48.06494141 81.95581055 C48.06409358 83.72110479 48.0645733 85.48640009 48.06626892 87.25169373 C48.06712425 92.00919029 48.04957397 96.76645663 48.02854705 101.52390003 C48.00970257 106.50865807 48.00802371 111.49342228 48.00447083 116.47821045 C47.99517308 125.90205022 47.97059024 135.32578469 47.94042236 144.74957824 C47.9068074 155.48482482 47.89037454 166.22007662 47.87533605 176.9553628 C47.84403852 199.02425555 47.79132249 221.09305374 47.72436523 243.16186523 C37.45700235 243.27854522 27.18980134 243.36697444 16.92190647 243.42092609 C12.15228652 243.44684139 7.38312548 243.48190191 2.61376953 243.5390625 C-2.00285813 243.59403618 -6.61904896 243.62342096 -11.23597908 243.63625145 C-12.98317388 243.6453757 -14.73034917 243.66318691 -16.47735405 243.69051552 C-37.49335709 244.00571083 -55.42728037 238.54610909 -71.27563477 224.16186523 C-83.20185451 212.56856131 -91.74457479 197.66243528 -92.40985584 180.74970627 C-92.41412932 179.49246372 -92.41840281 178.23522118 -92.42280579 176.93988037 C-92.42648247 176.23535492 -92.43015916 175.53082947 -92.43394727 174.80495477 C-92.44491571 172.45614394 -92.44881621 170.10737745 -92.45263672 167.75854492 C-92.45890645 166.06947186 -92.4655537 164.38040017 -92.47254944 162.69132996 C-92.49352841 157.15547637 -92.5039448 151.6196227 -92.51391602 146.08374023 C-92.51796562 144.17399329 -92.5220826 142.26424648 -92.5262661 140.35449982 C-92.54530278 131.38224229 -92.55953803 122.40999293 -92.56787807 113.43771911 C-92.5776506 103.09665005 -92.60397698 92.75579502 -92.64437896 82.41480136 C-92.67457449 74.41034224 -92.68935013 66.40594437 -92.69265908 58.40142941 C-92.69500523 53.62574577 -92.70390945 48.8502912 -92.72912025 44.07466888 C-92.75246685 39.57987847 -92.75660785 35.08546691 -92.74635887 30.59063148 C-92.74586503 28.94678039 -92.75214041 27.3029102 -92.76591492 25.65911674 C-92.8652683 13.09350384 -91.43440624 3.57882355 -82.49438477 -5.86157227 C-79.08802618 -8.89611002 -75.42528935 -10.98308271 -71.27563477 -12.83813477 C-70.54860352 -13.20293945 -69.82157227 -13.56774414 -69.07250977 -13.94360352 C-47.22156932 -20.93224229 -19.36924202 -9.8071816 0 0 Z " fill="#107DED" transform="translate(305.275634765625,435.838134765625)"/>
<path d="M0 0 C0.97453125 0.50853516 0.97453125 0.50853516 1.96875 1.02734375 C9.14582948 5.45006159 13.81816782 13.2420619 16.36177444 21.10879135 C17.7360143 27.33419886 17.41499713 33.76797863 17.38818359 40.11376953 C17.39225454 41.73606214 17.39759934 43.35835196 17.40411377 44.9806366 C17.4177376 49.36740428 17.41250745 53.75395919 17.40297651 58.14073038 C17.39534647 62.75014701 17.4024355 67.35954622 17.40713501 71.96896362 C17.41258614 79.71436812 17.40542127 87.45968669 17.39111328 95.20507812 C17.37482262 104.12606258 17.38005175 113.04684091 17.3965925 121.96782029 C17.41026717 129.65396533 17.41209693 137.34004879 17.40427649 145.02620208 C17.39962822 149.60464145 17.39889519 154.18298443 17.40888596 158.76141739 C17.41763959 163.07403614 17.41138281 167.38639325 17.39420319 171.69898415 C17.39028118 173.26976782 17.39129746 174.84057403 17.39799118 176.41134834 C17.48196497 198.1440292 12.54059762 217.338671 -2.53515625 233.76171875 C-12.69932488 243.53668505 -24.29671389 249.66371164 -38 253 C-39.08059944 253.26537819 -39.08059944 253.26537819 -40.18302917 253.53611755 C-43.76845809 254.12654523 -47.28960818 254.13136071 -50.91137695 254.11352539 C-52.08290062 254.11374443 -52.08290062 254.11374443 -53.27809143 254.1139679 C-55.84818339 254.1132737 -58.41820202 254.10550446 -60.98828125 254.09765625 C-62.77475444 254.09579032 -64.56122814 254.09436724 -66.34770203 254.09336853 C-71.04124371 254.08955716 -75.73475427 254.07973867 -80.42828369 254.06866455 C-85.22106505 254.05842075 -90.01385146 254.05386455 -94.80664062 254.04882812 C-104.20444073 254.03811514 -113.60221777 254.02105531 -123 254 C-123.07022144 231.16387864 -123.12305238 208.32777521 -123.15543652 185.49156761 C-123.17087571 174.88724524 -123.19190863 164.28299013 -123.22631836 153.67871094 C-123.25631122 144.43116414 -123.2755964 135.18366608 -123.28226548 125.93607199 C-123.28616104 121.04395296 -123.29525415 116.1519733 -123.31719017 111.25989914 C-123.33771184 106.6454024 -123.34380245 102.03110108 -123.33932304 97.41656303 C-123.34014129 95.73247271 -123.34601281 94.04837512 -123.35761642 92.36432457 C-123.51437803 68.4173938 -117.07669047 48.15770142 -100.39453125 30.3671875 C-84.31013663 14.4664646 -62.83430603 3.55357182 -41 -2 C-40.15050781 -2.22429687 -39.30101562 -2.44859375 -38.42578125 -2.6796875 C-26.11569327 -5.43201958 -11.33901603 -6.04880608 0 0 Z " fill="#2DCC72" transform="translate(794,425)"/>
<path d="M0 0 C104.94 0 209.88 0 318 0 C316.88412452 74.76365724 316.88412452 74.76365724 307 85 C298.13706898 92.50202031 288.40504584 94.45802273 277.03883362 94.38768005 C275.98041053 94.39306559 274.92198745 94.39845113 273.83149093 94.40399987 C270.30884534 94.41823002 266.78657815 94.41118779 263.26391602 94.40405273 C260.72859395 94.40975884 258.19327445 94.41672403 255.65795898 94.42485046 C249.50069684 94.44091102 243.34357288 94.44288807 237.18629617 94.43763756 C232.17899079 94.43358631 227.1717155 94.43505071 222.16441154 94.44038582 C221.45012383 94.44113424 220.73583612 94.44188266 219.99990333 94.44265376 C218.54855871 94.44418533 217.09721409 94.44572368 215.64586949 94.44726873 C202.05449861 94.46097709 188.4631854 94.45556767 174.87181585 94.44408352 C162.4543949 94.43415147 150.03712297 94.44709424 137.619725 94.47101771 C124.84906967 94.49543519 112.07848367 94.50501017 99.30780548 94.49836498 C92.14620023 94.49487882 84.98470955 94.49706494 77.82312202 94.51461601 C71.08838234 94.53091726 64.35397207 94.52611533 57.61922455 94.50731087 C55.15178672 94.5036286 52.68432776 94.50672281 50.21690941 94.51719666 C46.84033051 94.53043233 43.46468924 94.51883507 40.08815002 94.50120544 C39.11925687 94.51081045 38.15036371 94.52041546 37.15211016 94.53031152 C26.3381463 94.41469169 16.6424146 90.79138954 9 83 C-8.64227259 60.03030156 0 25.31937841 0 0 Z " fill="#107DED" transform="translate(353,717)"/>
</svg>
